<svg viewBox="0 0 573 242" xmlns="http://www.w3.org/2000/svg" fill-rule="evenodd" clip-rule="evenodd" stroke-linecap="round" stroke-linejoin="round" stroke-miterlimit="1.5">
  <path fill="none" d="M.0008-.0002h572.8208v241.5805H.0008z"/>
  <text x="123.722" y="350.189" font-family="'RobotoSlab-Bold','Roboto Slab'" font-weight="700" font-size="12" transform="matrix(4.17271 0 0 4.1727 -509.2257 -1226.681)">
    THUO<tspan x="158.661" y="350.189">T</tspan>ENBERG
  </text>
  <path d="M348.264 255.341l-5.72 2.172s-14.33-2.505-32.625-19.232c-11.895-10.875-29.418-32.145-35.368-37.216-7.361-6.273-24.703-17.178-24.703-17.178s-25.415 13.967-49.679 47.512c-19.314 26.701-28.621 74.037-28.621 74.037l-30.865 13.748-1.821-1.881 29.198-15.034s7.501-40.124 22.037-64.681c24.062-40.649 59.57-59.209 59.57-59.209s15.017 7.589 27.88 20.17c13.487 13.19 27.801 31.388 35.664 38.121 19.653 16.829 35.053 18.671 35.053 18.671z" stroke="#000" transform="translate(-123.6587 -128.7137)"/>
  <path d="M273.516 194.698s5.108-5.143 7.857-7.498c2.756-2.36 8.675-6.66 8.675-6.66s14.918 16.679 20.841 21.47c4.626 3.743 13.641 8.537 13.641 8.537l-.518 2.002s-11.181-4.284-16.06-7.654c-5.715-3.948-18.23-16.033-18.23-16.033s-3.577 3.569-5.095 5.579c-1.56 2.066-4.269 6.818-4.269 6.818l-6.842-6.561z" stroke="#000" transform="translate(-123.6587 -128.7137)"/>
  <path d="M298.26 189.401s21.016-19.44 31.989-28.622c11.124-9.308 34.755-27.227 34.755-27.227s5.038 6.555 7.644 8.907c2.359 2.13 7.989 5.206 7.989 5.206s6.468-4.79 9.777-7.079c3.458-2.391 10.975-7.27 10.975-7.27s31.247 41.25 51.568 56.757c22.93 17.498 86.015 48.234 86.015 48.234l-2.349 1.31s-64.903-32.259-87.57-48.436c-18.621-13.289-48.432-48.625-48.432-48.625s-5.445 3.045-8.046 4.762c-3.305 2.183-11.785 8.335-11.785 8.335s-8.024-5.389-11.034-7.645c-2.446-1.832-7.027-5.888-7.027-5.888s-18.673 13.244-27.365 20.668c-10.007 8.548-32.676 30.617-32.676 30.617l-4.428-4.004z" stroke="#000" transform="translate(-123.6587 -128.7137)"/>
  <path d="M390.371 172.178l1.917 63.17 3.497.009-1.948-62.039 40.381-31.013-1.178-1.641-42.669 31.514z" stroke="#000" transform="translate(.0008 -10.363)"/>
  <path d="M419.987 234.664l-4.163-62.178 75.832-6.313.064 1.307-71.698 6.644 4.931 60.416-4.966.124z" stroke="#000" transform="translate(.0008 -10.363)"/>
  <path d="M464.221 189.399l-42.42 4.926-.133-3.877 42.412-2.554.141 1.505zM449.843 210.482l-27.228-.056.169 2.904 26.971-1.288.088-1.56zM524.386 154.639l-85.51-53.888-97.54 73.822 3.87 2.402 93.72-70.101 84.75 48.675.71-.91z" stroke="#000" transform="translate(.0008 -10.363)"/>
  <path d="M337.302 78.437l-5.068-3.725s107.927-43.32 128.571-2.425c41.895 82.994 103.717 71.147 103.717 71.147l-.456 1.573s-69.225 9.887-107.044-69.043c-17.329-36.167-119.72 2.473-119.72 2.473z" stroke="#000" transform="translate(.0008 -10.363)"/>
  <path d="M359.721 155.815l-.14 46.831 4.995-3.764-.474-46.291-4.381 3.224zM337.26 196.201l-2.431-71.289-4.751-.534 1.045 72.074 6.137-.251z" stroke="#000" transform="translate(.0008 -.0002)"/>
  <path d="M330.043 124.455s-10.67.964-15.347.994c-4.886.03-16.91-2.237-16.91-2.237l-.505 24.59s8.661 5.315 13.54 6.835c5.12 1.594 20.586.117 20.586.117l-.327-2.833s-13.885 2.026-18.64.702c-3.903-1.087-13.531-6.168-13.531-6.168l.57-20.733s12.428 1.79 16.898 1.78c4.454-.011 13.646-1.189 13.646-1.189l.02-1.858z" stroke="#000" transform="translate(.0008 -.0002)"/>
  <path d="M317.257 130.677l-5.997-.38-.329 5.932-5.658-.738-.085 5.41 5.582 1.113.086 4.987 6.178.66.031-5.586 6.178-.485.026-5.665-6.151.247.139-5.495z" fill="none" stroke="#000" stroke-width="1.5" transform="translate(-.1992 .6395)"/>
</svg>
