<?xml version="1.0" encoding="UTF-8" standalone="no"?>
<!DOCTYPE svg PUBLIC "-//W3C//DTD SVG 1.1//EN" "http://www.w3.org/Graphics/SVG/1.1/DTD/svg11.dtd">
<svg width="100%" height="100%" viewBox="0 0 573 263" version="1.1" xmlns="http://www.w3.org/2000/svg" xmlns:xlink="http://www.w3.org/1999/xlink" xml:space="preserve" xmlns:serif="http://www.serif.com/" style="fill-rule:evenodd;clip-rule:evenodd;stroke-linecap:round;stroke-linejoin:round;stroke-miterlimit:1.5;">
    <g id="Artboard1" transform="matrix(1.02568,0,0,0.958539,-141.782,-103.149)">
        <rect x="138.233" y="107.61" width="558.479" height="273.768" style="fill:none;"/>
        <g transform="matrix(4.06824,0,0,4.35319,-358.244,-1161.32)">
            <text x="123.722px" y="350.189px" style="font-family:'TimesNewRomanPS-BoldMT', 'Times New Roman', serif;font-weight:700;font-size:12px;">THUOTENBERG</text>
        </g>
        <g transform="matrix(0.974964,0,0,1.04325,17.6695,-15.8597)">
            <path d="M348.264,255.341L342.544,257.513C342.544,257.513 328.214,255.008 309.919,238.281C298.024,227.406 280.501,206.136 274.551,201.065C267.19,194.792 249.848,183.887 249.848,183.887C249.848,183.887 224.433,197.854 200.169,231.399C180.855,258.1 171.548,305.436 171.548,305.436L140.683,319.184L138.862,317.303L168.06,302.269C168.06,302.269 175.561,262.145 190.097,237.588C214.159,196.939 249.667,178.379 249.667,178.379C249.667,178.379 264.684,185.968 277.547,198.549C291.034,211.739 305.348,229.937 313.211,236.67C332.864,253.499 348.264,255.341 348.264,255.341Z" style="stroke:black;stroke-width:1px;"/>
        </g>
        <g transform="matrix(0.974964,0,0,1.04325,17.6695,-15.8597)">
            <path d="M273.516,194.698C273.516,194.698 278.624,189.555 281.373,187.2C284.129,184.84 290.048,180.54 290.048,180.54C290.048,180.54 304.966,197.219 310.889,202.01C315.515,205.753 324.53,210.547 324.53,210.547L324.012,212.549C324.012,212.549 312.831,208.265 307.952,204.895C302.237,200.947 289.722,188.862 289.722,188.862C289.722,188.862 286.145,192.431 284.627,194.441C283.067,196.507 280.358,201.259 280.358,201.259L273.516,194.698Z" style="stroke:black;stroke-width:1px;"/>
        </g>
        <g transform="matrix(0.974964,0,0,1.04325,17.6695,-15.8597)">
            <path d="M298.26,189.401C298.26,189.401 319.276,169.961 330.249,160.779C341.373,151.471 365.004,133.552 365.004,133.552C365.004,133.552 370.042,140.107 372.648,142.459C375.007,144.589 380.637,147.665 380.637,147.665C380.637,147.665 387.105,142.875 390.414,140.586C393.872,138.195 401.389,133.316 401.389,133.316C401.389,133.316 432.636,174.566 452.957,190.073C475.887,207.571 538.972,238.307 538.972,238.307L536.623,239.617C536.623,239.617 471.72,207.358 449.053,191.181C430.432,177.892 400.621,142.556 400.621,142.556C400.621,142.556 395.176,145.601 392.575,147.318C389.27,149.501 380.79,155.653 380.79,155.653C380.79,155.653 372.766,150.264 369.756,148.008C367.31,146.176 362.729,142.12 362.729,142.12C362.729,142.12 344.056,155.364 335.364,162.788C325.357,171.336 302.688,193.405 302.688,193.405L298.26,189.401Z" style="stroke:black;stroke-width:1px;"/>
        </g>
        <g transform="matrix(0.974964,0,0,1.04325,17.6695,-15.8597)">
            <path d="M472.096,188.388C472.096,188.388 530.997,173.912 559.743,179.856C600.596,188.303 601.702,228.954 629.71,247.949C640.415,255.209 657.743,263.096 667.636,265.066C683.963,268.317 690.47,262.422 690.47,262.422" style="fill:none;stroke:black;stroke-width:1px;"/>
        </g>
        <g transform="matrix(0.974964,0,0,1.04325,17.6695,-15.8597)">
            <path d="M458.472,324.2L457.219,254.891" style="fill:none;stroke:black;stroke-width:1px;"/>
        </g>
        <g transform="matrix(0.974964,0,0,1.04325,17.6695,-15.8597)">
            <path d="M455.408,253.053C455.408,253.053 445.258,255.466 440.079,255.62C434.66,255.782 422.891,254.024 422.891,254.024L422.502,275.738C422.502,275.738 433.463,281.652 439.104,282.665C444.744,283.677 456.344,281.811 456.344,281.811L455.408,253.053Z" style="fill:none;stroke:black;stroke-width:1px;"/>
        </g>
        <g transform="matrix(0.974964,0,0,1.04325,17.6695,-15.8597)">
            <path d="M432.587,266.261L432.573,259.077L439.862,258.501L440.922,264.165L448.388,263.716L450.094,270.089L442.885,270.991L442.763,278.744L434.241,276.526L434.446,270.973L427.354,270.653L425.539,263.598L432.587,266.261Z" style="fill:none;stroke:black;stroke-width:1px;"/>
        </g>
        <g transform="matrix(0.974964,0,0,1.04325,17.6695,-15.8597)">
            <path d="M483.216,278.319L486.525,366.166" style="fill:none;stroke:black;stroke-width:1px;"/>
        </g>
        <g transform="matrix(0.974964,0,0,1.04325,17.6695,-15.8597)">
            <path d="M467.376,290.56L562.771,221.089L654.066,276.21" style="fill:none;stroke:black;stroke-width:1px;"/>
        </g>
        <g transform="matrix(0.974964,0,0,1.04325,17.6695,-15.8597)">
            <path d="M516.647,354.309L514.231,289.721L560.36,258.296" style="fill:none;stroke:black;stroke-width:1px;"/>
        </g>
        <g transform="matrix(0.974964,0,0,1.04325,17.6695,-15.8597)">
            <path d="M546.379,351.88L541.52,290.918L613.66,285.168" style="fill:none;stroke:black;stroke-width:1px;"/>
        </g>
        <g transform="matrix(0.974964,0,0,1.04325,17.6695,-15.8597)">
            <path d="M543.096,310.688L587.616,306.88" style="fill:none;stroke:black;stroke-width:1px;"/>
        </g>
        <g transform="matrix(0.974964,0,0,1.04325,17.6695,-15.8597)">
            <path d="M544.886,329.945L572.902,329.932" style="fill:none;stroke:black;stroke-width:1px;"/>
        </g>
    </g>
</svg>
